<svg xmlns="http://www.w3.org/2000/svg" viewBox="0 0 512 512">
  <path fill="#FFD700" d="M256 32c-74.2 0-135.1 53.8-147.3 124.4-33.3 18.7-55.9 54.3-55.9 95.3 0 60.6 49.1 109.7 109.7 109.7 2.9 0 5.8-.1 8.7-.3C194.6 435.6 259.5 480 256 480c-3.5 0 61.4-44.4 84.8-118.9 2.9.2 5.8.3 8.7.3 60.6 0 109.7-49.1 109.7-109.7 0-41-22.6-76.6-55.9-95.3C391.1 85.8 330.2 32 256 32z"/>
  <circle fill="#FF6347" cx="198" cy="186" r="14"/>
  <circle fill="#FF6347" cx="314" cy="186" r="14"/>
  <path fill="#FF6347" d="M256 230c-39.8 0-72 32.2-72 72h144c0-39.8-32.2-72-72-72z"/>
</svg>